<?xml version="1.0" encoding="UTF-8" standalone="no"?>
<svg
   width="256"
   height="67"
   viewBox="0 0 256 67"
   version="1.1"
   id="svg5"
   sodipodi:docname="endeavouros-logo-text-dark-2.svg"
   inkscape:version="1.4 (e7c3feb100, 2024-10-09)"
   xmlns:inkscape="http://www.inkscape.org/namespaces/inkscape"
   xmlns:sodipodi="http://sodipodi.sourceforge.net/DTD/sodipodi-0.dtd"
   xmlns="http://www.w3.org/2000/svg"
   xmlns:svg="http://www.w3.org/2000/svg"
   xmlns:rdf="http://www.w3.org/1999/02/22-rdf-syntax-ns#"
   xmlns:cc="http://creativecommons.org/ns#"
   xmlns:dc="http://purl.org/dc/elements/1.1/">
  <title
     id="title1">EndeavourOS Logo Text Dark</title>
  <defs
     id="defs5" />
  <sodipodi:namedview
     id="namedview5"
     pagecolor="#ffffff"
     bordercolor="#000000"
     borderopacity="0.25"
     inkscape:showpageshadow="2"
     inkscape:pageopacity="0.0"
     inkscape:pagecheckerboard="0"
     inkscape:deskcolor="#d1d1d1"
     inkscape:zoom="6.9570313"
     inkscape:cx="174.71533"
     inkscape:cy="33.491297"
     inkscape:window-width="1920"
     inkscape:window-height="1008"
     inkscape:window-x="0"
     inkscape:window-y="0"
     inkscape:window-maximized="1"
     inkscape:current-layer="svg5">
    <inkscape:page
       x="0"
       y="0"
       width="256"
       height="67"
       id="page2"
       margin="0"
       bleed="0" />
  </sodipodi:namedview>
  <g
     id="surface1">
    <path
       style="fill:#7d7dff;fill-opacity:1;fill-rule:nonzero;stroke:none"
       d="m 48.574219,3.679688 c 6.515625,9.222656 34.03125,44.96875 15.269531,52.359374 -8.734375,4.023438 -48.570312,-2.355468 -47.984375,-1.316406 -2.847656,4.691406 -5.125,8.460938 -5.125,8.460938 0,0 30.617187,1.382812 54.425781,-1.816406 33.882813,-4.550782 -6.960937,-47.917969 -16.585937,-57.6875 z m 0,0"
       id="path1" />
    <path
       style="fill:#ff7d7d;fill-opacity:1;fill-rule:nonzero;stroke:none"
       d="M 48.5,3.65625 C 46.324219,3.957031 6.46875,52.960938 6.46875,52.960938 c 0,0 2.863281,0.8125 9.390625,1.761718 C 17.976562,53.070312 47.671875,2.890625 48.574219,3.679688 48.558594,3.660156 48.53125,3.652344 48.5,3.65625 Z m 0,0"
       id="path2" />
    <path
       style="fill:#7d3dbd;fill-opacity:1;fill-rule:nonzero;stroke:none"
       d="M 48.539062,3.664062 C 47.167969,3.4375 15.859375,54.722656 15.859375,54.722656 c 0,0 28.421875,3.003906 40.078125,2.804688 C 88.933594,56.96875 56.1875,13.769531 48.574219,3.679688 48.5625,3.667969 48.550781,3.664062 48.539062,3.664062 Z m 0,0"
       id="path3" />
    <path
       style="fill:#ffffff;fill-opacity:1;fill-rule:nonzero;stroke:none"
       d="m 186.80859,24.121094 c -2.08593,0 -3.77343,1.683594 -3.77343,3.742187 v 19.816407 c 0.043,2.019531 1.71875,3.695312 3.77343,3.695312 h 2.04297 c 2,-0.08203 3.60156,-1.6875 3.64453,-3.695312 V 27.863281 c 0,-2.019531 -1.63672,-3.65625 -3.64453,-3.742187 z m -55.38281,0.257812 h -5.57812 v 26.738282 h 5.57812 c 2.04688,0 3.69531,-1.648438 3.73438,-3.695313 V 28.074219 c -0.0391,-2.046875 -1.6875,-3.695313 -3.73438,-3.695313 z m 19.32813,0 h -7.60157 c -0.67187,0 -1.21093,0.523438 -1.26953,1.15625 v 25.582032 h 6.34766 c 0.98047,0 1.58594,-0.480469 1.83984,-0.9375 l 0.008,-0.01563 c 0.14844,-0.296874 0.56641,-1.28125 0.85547,-1.9375 l 0.28907,-0.648437 h -5.76954 v -8.5 c 0,-0.0625 0.10547,-0.167969 0.16407,-0.167969 h 1.10547 c 0.98046,0 1.55859,-0.507812 1.80078,-0.941406 l 0.008,-0.01563 c 0.0781,-0.15625 0.20703,-0.457031 0.36719,-0.835937 0.16015,-0.378907 0.34765,-0.8125 0.49218,-1.136719 l 0.28516,-0.648438 h -4.22266 v -7.210937 c 0,-0.152344 0.0117,-0.167969 0.16407,-0.167969 h 2.13672 c 0.98828,0 1.59765,-0.511719 1.8164,-1.003906 z m -52.054691,0 c -0.671875,0 -1.210938,0.527344 -1.269531,1.15625 v 25.582032 h 6.347652 c 0.98047,0 1.58594,-0.480469 1.83594,-0.9375 l 0.008,-0.0078 0.004,-0.0078 c 0.14453,-0.296874 0.5625,-1.28125 0.85547,-1.9375 l 0.28906,-0.648437 h -5.77344 v -8.5 c 0,-0.05859 0.10938,-0.167969 0.16797,-0.167969 h 1.10157 c 0.98046,0 1.5625,-0.503906 1.80468,-0.9375 l 0.004,-0.0078 0.004,-0.01172 c 0.0781,-0.15625 0.20312,-0.457031 0.36328,-0.835937 0.16406,-0.378907 0.34765,-0.808594 0.49218,-1.136719 l 0.28516,-0.648438 h -4.22266 v -7.210937 c 0,-0.152344 0.0156,-0.167969 0.16797,-0.167969 h 2.13282 c 0.99218,0 1.59765,-0.511719 1.8164,-1.003906 h 0.004 l 1.18359,-2.570313 z m 12.296871,0 v 26.738282 h 3.57032 V 40.421875 l 1.92578,8.675781 c 0.0547,0.25 0.14062,0.738282 0.46094,1.191406 0.3164,0.449219 0.91406,0.828126 1.7539,0.828126 h 1.67188 V 24.378906 h -3.57032 V 35.117188 L 115,26.1875 c -0.0781,-0.390625 -0.19922,-0.859375 -0.57031,-1.230469 -0.3711,-0.375 -0.94922,-0.578125 -1.75781,-0.578125 z m 46.80078,0 -0.0586,0.394532 -3.98047,26.34375 h 3.84375 l 1.91406,-14.679688 1.91797,14.679688 h 3.84766 l -3.80078,-24.945313 v -0.0039 c -0.0586,-0.363287 -0.1289,-0.789069 -0.41405,-1.167975 -0.28125,-0.375 -0.78907,-0.621094 -1.4375,-0.621094 z m 9.63282,0 0.082,0.53125 3.67969,24.011719 v 0.0039 c 0.0156,0.08203 0.0859,0.617188 0.35546,1.128907 0.27344,0.511718 0.83594,1.0625 1.67969,1.0625 h 1.72266 L 179.02731,24.3789 h -3.58203 l -2.21875,14.589844 -2.00781,-13.207031 -0.004,-0.0039 c -0.17187,-0.992187 -0.79687,-1.378906 -1.22656,-1.378906 z m 31.69531,0 c -0.65625,0 -1.17188,0.527344 -1.23047,1.15625 v 22.097656 c 0,2.058594 1.69922,3.632813 3.73438,3.632813 h 2.48437 v -0.132813 c 1.74609,-0.253906 3.16406,-1.644531 3.16406,-3.5 V 24.378906 h -3.57031 v 22.773438 c 0,0.527344 -0.41406,0.941406 -0.9375,0.941406 h -0.40625 c -0.52344,0 -0.90234,-0.398438 -0.90234,-0.941406 V 24.378906 Z m 13.73437,0 v 26.738282 h 3.56641 V 40.015625 h 0.94141 c 0.26172,0 0.46484,0.07031 0.61328,0.222656 0.15234,0.152344 0.28906,0.429688 0.28906,0.976563 v 9.902344 h 3.57031 V 40.789062 c 0,0 0.0195,-0.527343 -0.10156,-1.132812 -0.0898,-0.429688 -0.31641,-0.894531 -0.66406,-1.285156 0.10156,-0.09766 0.26562,-0.140625 0.33594,-0.253906 0.1875,-0.300782 0.28125,-0.625 0.33984,-0.929688 0.12109,-0.609375 0.0859,-1.160156 0.0859,-1.160156 v -7.941406 c 0,-2.058594 -1.6836,-3.707032 -3.69922,-3.707032 z m -25.29296,2.988282 h 0.38281 c 0.52734,0 0.9414,0.402343 0.9414,0.976562 v 18.808594 c 0,0.574218 -0.41796,0.976562 -0.9414,0.976562 h -0.38281 c -0.53516,-0.02344 -0.96094,-0.449218 -0.96094,-0.976562 V 28.34375 c 0,-0.527344 0.42578,-0.953125 0.96094,-0.976562 z m 28.85937,0.402343 h 0.94141 c 0.26953,0 0.5,0.07422 0.64843,0.199219 0.14454,0.125 0.25391,0.296875 0.25391,0.671875 v 6.929687 c 0,0.503907 -0.125,0.714844 -0.26172,0.835938 -0.13672,0.121094 -0.35547,0.179688 -0.64062,0.179688 h -0.94141 z m -87.00781,0.1875 h 1.27344 c 0.28906,0 0.53125,0.07422 0.68359,0.199219 0.14844,0.125 0.25391,0.292969 0.25391,0.667969 v 17.847656 c 0,0.398437 -0.10938,0.578125 -0.25782,0.703125 -0.15234,0.128906 -0.39062,0.203125 -0.67968,0.203125 h -1.27344 z m 0,0"
       id="path4" />
    <path
       style="fill:#7d7dff;fill-opacity:1;fill-rule:nonzero;stroke:none"
       d="m 230.74609,24.121094 c -2.08593,0 -3.77343,1.683594 -3.77343,3.742187 v 19.816407 c 0.043,2.019531 1.71875,3.695312 3.77343,3.695312 h 2.04297 c 2,-0.08203 3.60156,-1.6875 3.64063,-3.695312 V 27.863281 c 0,-2.019531 -1.63672,-3.65625 -3.64063,-3.742187 z m 15.00391,0 c -2.11328,0 -3.77344,1.832031 -3.77344,3.890625 v 2.625 c 0,0 -0.10547,1.890625 1.23438,4.347656 l 3.16406,5.9375 0.004,0.0078 c 0,0 0.26953,0.472656 0.54687,1.132812 0.27344,0.65625 0.53516,1.5 0.53516,2.140625 v 2.949219 c 0,0.574218 -0.41407,0.976562 -0.94141,0.976562 -0.52344,0 -0.9375,-0.414062 -0.9375,-0.9375 v -5.210937 l -0.64844,0.289062 c -0.33203,0.148438 -0.76172,0.339844 -1.13672,0.507813 -0.375,0.164062 -0.73437,0.3125 -0.76953,0.324218 l -0.043,0.01563 -0.0352,0.01953 c -0.44141,0.246093 -0.97266,0.84375 -0.97266,1.839843 v 2.667969 c 0.0391,2.007813 1.63672,3.648438 3.64453,3.730469 h 1.67188 c 2.08594,0 3.77344,-1.683594 3.77344,-3.742188 v -3.253906 c 0,0 0.10546,-1.890625 -1.23438,-4.34375 l -3.16797,-5.976562 -0.004,-0.0078 c 0,0 -0.26954,-0.464843 -0.54297,-1.113281 -0.27344,-0.648438 -0.53516,-1.480469 -0.53516,-2.121094 V 28.34375 c 0,-0.574219 0.41406,-0.976562 0.9375,-0.976562 0.52734,0 0.94141,0.402343 0.94141,0.976562 v 3.683594 l 0.63672,-0.273438 c 0.71484,-0.300781 1.72265,-0.765625 1.98046,-0.894531 l 0.008,-0.0039 0.008,-0.0078 c 0.44531,-0.246094 0.97266,-0.84375 0.97266,-1.839844 v -0.996093 c 0,-2.019531 -1.60938,-3.847657 -3.65235,-3.890625 z m -14.24609,3.246094 h 0.38281 c 0.52734,0 0.9414,0.402343 0.9414,0.976562 v 18.808594 c 0,0.574218 -0.41406,0.976562 -0.9414,0.976562 h -0.38281 c -0.53516,-0.02344 -0.96094,-0.449218 -0.96094,-0.976562 V 28.34375 c 0,-0.527344 0.42578,-0.953125 0.96094,-0.976562 z m 0,0"
       id="path5" />
  </g>
  <metadata
     id="metadata1">
    <rdf:RDF>
      <cc:Work
         rdf:about="">
        <dc:title>EndeavourOS Logo Text Dark</dc:title>
        <dc:publisher>
          <cc:Agent>
            <dc:title>www.endeavouros.com</dc:title>
          </cc:Agent>
        </dc:publisher>
        <cc:license
           rdf:resource="http://creativecommons.org/licenses/by/4.0/" />
      </cc:Work>
      <cc:License
         rdf:about="http://creativecommons.org/licenses/by/4.0/">
        <cc:permits
           rdf:resource="http://creativecommons.org/ns#Reproduction" />
        <cc:permits
           rdf:resource="http://creativecommons.org/ns#Distribution" />
        <cc:requires
           rdf:resource="http://creativecommons.org/ns#Notice" />
        <cc:requires
           rdf:resource="http://creativecommons.org/ns#Attribution" />
        <cc:permits
           rdf:resource="http://creativecommons.org/ns#DerivativeWorks" />
      </cc:License>
    </rdf:RDF>
  </metadata>
</svg>
